<svg xmlns="http://www.w3.org/2000/svg" width="1200" height="1500" viewBox="0 0 1200 1500" fill="none">
  <defs>
    <linearGradient id="bg" x1="0" y1="0" x2="1" y2="1">
      <stop offset="0%" stop-color="#f4f2ef"/>
      <stop offset="100%" stop-color="#ece7e3"/>
    </linearGradient>
  </defs>
  <rect width="1200" height="1500" fill="url(#bg)"/>
  <rect x="84" y="104" width="1032" height="1292" rx="40" stroke="#2f323a" stroke-opacity="0.18" stroke-width="2"/>
  <rect x="122" y="146" width="956" height="1210" rx="30" stroke="#2f323a" stroke-opacity="0.12" stroke-width="1.5"/>
  <path d="M450 500 L530 420 L610 500 L610 944 L530 1022 L450 944 Z M516 596 L544 596 M516 642 L544 642 M500 760 L560 760 M500 816 L560 816" fill="none" stroke="#2f323a" stroke-opacity="0.65" stroke-width="11"/>
  <circle cx="164" cy="164" r="8" fill="#2f323a" fill-opacity="0.48"/>
  <circle cx="194" cy="164" r="8" fill="#2f323a" fill-opacity="0.32"/>
  <circle cx="224" cy="164" r="8" fill="#2f323a" fill-opacity="0.2"/>
  <text x="140" y="1252" fill="#2f323a" fill-opacity="0.92" font-size="54" font-family="Manrope, Arial, sans-serif" font-weight="600">Jeans Essential</text>
  <text x="140" y="1304" fill="#2f323a" fill-opacity="0.58" font-size="28" font-family="Manrope, Arial, sans-serif" font-weight="500" letter-spacing="0.06em">Campaign Mock</text>
  <text x="140" y="1348" fill="#2f323a" fill-opacity="0.42" font-size="18" font-family="Manrope, Arial, sans-serif" letter-spacing="0.2em">DENIM PREMIUM MOCK</text>
</svg>
